<?xml version="1.0" encoding="UTF-8" standalone="no"?>
<!-- Created with Inkscape (http://www.inkscape.org/) -->

<svg
   width="51.528mm"
   height="97.373001mm"
   viewBox="0 0 51.528 97.373001"
   version="1.1"
   id="svg1"
   inkscape:version="1.3.2 (091e20e, 2023-11-25)"
   sodipodi:docname="glass.svg"
   xmlns:inkscape="http://www.inkscape.org/namespaces/inkscape"
   xmlns:sodipodi="http://sodipodi.sourceforge.net/DTD/sodipodi-0.dtd"
   xmlns="http://www.w3.org/2000/svg"
   xmlns:svg="http://www.w3.org/2000/svg">
  <sodipodi:namedview
     id="namedview1"
     pagecolor="#ffffff"
     bordercolor="#000000"
     borderopacity="0.25"
     inkscape:showpageshadow="2"
     inkscape:pageopacity="0.0"
     inkscape:pagecheckerboard="0"
     inkscape:deskcolor="#d1d1d1"
     inkscape:document-units="mm"
     showguides="false"
     inkscape:zoom="0.43831218"
     inkscape:cx="-28.518487"
     inkscape:cy="241.83677"
     inkscape:window-width="1312"
     inkscape:window-height="449"
     inkscape:window-x="0"
     inkscape:window-y="25"
     inkscape:window-maximized="0"
     inkscape:current-layer="layer1"
     inkscape:clip-to-page="false" />
  <defs
     id="defs1">
    <radialGradient
       id="h"
       cx="159.03999"
       cy="469.76001"
       r="92.061996"
       gradientTransform="matrix(1.2761,0.032784,-0.0076807,0.29896,-40.299,248.42)"
       gradientUnits="userSpaceOnUse">
      <stop
         stop-color="#a4a0d6"
         stop-opacity=".744"
         offset="0"
         id="stop4" />
      <stop
         stop-opacity="0"
         offset="1"
         id="stop5" />
    </radialGradient>
    <filter
       id="e"
       x="-0.021158827"
       y="-0.12057051"
       width="1.0423177"
       height="1.241141">
      <feGaussianBlur
         stdDeviation="1.623281"
         id="feGaussianBlur1" />
    </filter>
    <linearGradient
       id="g"
       x1="126.14352"
       x2="15.962085"
       y1="686.02692"
       y2="686.02692"
       gradientTransform="scale(2.0141934,0.49647666)"
       gradientUnits="userSpaceOnUse">
      <stop
         stop-color="#fff"
         offset="0"
         id="stop2" />
      <stop
         stop-color="#d4d4d4"
         stop-opacity=".278"
         offset="1"
         id="stop3" />
    </linearGradient>
    <filter
       id="f"
       x="-0.028462656"
       y="-0.15307634"
       width="1.0569253"
       height="1.3061527">
      <feGaussianBlur
         stdDeviation="2.143056"
         id="feGaussianBlur2" />
    </filter>
    <radialGradient
       id="h-9"
       cx="159.03999"
       cy="469.76001"
       r="92.061996"
       gradientTransform="matrix(1.2761,0.032784,-0.0076807,0.29896,-40.299,248.42)"
       gradientUnits="userSpaceOnUse">
      <stop
         stop-color="#a4a0d6"
         stop-opacity=".744"
         offset="0"
         id="stop4-7" />
      <stop
         stop-opacity="0"
         offset="1"
         id="stop5-0" />
    </radialGradient>
    <filter
       id="e-3"
       x="-0.021158827"
       y="-0.12057051"
       width="1.0423177"
       height="1.241141">
      <feGaussianBlur
         stdDeviation="1.623281"
         id="feGaussianBlur1-9" />
    </filter>
    <filter
       id="f-5"
       x="-0.028462656"
       y="-0.15307634"
       width="1.0569253"
       height="1.3061527">
      <feGaussianBlur
         stdDeviation="2.143056"
         id="feGaussianBlur2-7" />
    </filter>
    <radialGradient
       id="h-3"
       cx="159.03999"
       cy="469.76001"
       r="92.061996"
       gradientTransform="matrix(1.2761,0.032784,-0.0076807,0.29896,-40.299,248.42)"
       gradientUnits="userSpaceOnUse">
      <stop
         stop-color="#a4a0d6"
         stop-opacity=".744"
         offset="0"
         id="stop4-6" />
      <stop
         stop-opacity="0"
         offset="1"
         id="stop5-5" />
    </radialGradient>
    <filter
       id="e-5"
       x="-0.021158828"
       y="-0.12057051"
       width="1.0423177"
       height="1.241141">
      <feGaussianBlur
         stdDeviation="1.623281"
         id="feGaussianBlur1-8" />
    </filter>
    <filter
       id="f-7"
       x="-0.028462655"
       y="-0.15307633"
       width="1.0569253"
       height="1.3061527">
      <feGaussianBlur
         stdDeviation="2.143056"
         id="feGaussianBlur2-1" />
    </filter>
  </defs>
  <g
     inkscape:label="Layer 1"
     inkscape:groupmode="layer"
     id="layer1">
    <path
       d="m 7.6688,329.03 c -0.57098,0.10959 -0.47772,1.9869 -0.45868,2.9349 0,6.056 0.27704,4.2297 1.6152,6.3876 1.3381,2.1578 3.2034,4.0562 5.5511,5.8878 4.6955,3.6632 11.34,6.8932 19.528,9.5951 16.376,5.4036 38.891,8.7228 63.772,8.7228 24.881,0 47.397,-3.3192 63.772,-8.7228 8.1878,-2.7018 14.833,-5.9318 19.528,-9.5951 2.3477,-1.8316 4.213,-3.73 5.5512,-5.8878 1.3381,-2.1579 1.3193,-2.4479 1.1962,-7.2661 0.0404,-1.0398 0.4596,-2.128 -0.17188,-2.128 -4.0105,12.482 -15.23,17.078 -26.566,21.115 -16.153,5.3303 -38.554,8.6682 -63.31,8.6682 -24.756,0 -47.157,-3.338 -63.31,-8.6682 -8.0766,-2.6651 -14.599,-5.8348 -19,-9.2679 -4.7638,-2.708 -5.7098,-7.6351 -7.6989,-11.776 z"
       filter="url(#f)"
       opacity="0.602"
       stroke-width="2.192"
       id="path5"
       style="filter:url(#f-7)"
       transform="matrix(0.26458333,0,0,0.26458333,0.07170585,1.0853281)" />
    <path
       d="M 0.49485387,3.2512337 1.6824361,84.824925"
       fill="none"
       stroke="#000000"
       stroke-width="0.128323"
       id="path6" />
    <path
       d="M 0.49683827,3.2532181 1.6804517,90.248221"
       fill="#00ffff"
       opacity="0.704"
       stroke="#999999"
       stroke-width="0.79375"
       id="path7" />
    <path
       d="m 25.889752,5.1456239 c -13.996991,0 -25.35026293,-0.8268494 -25.35026293,-1.8520833 0,-0.1163214 0.1588082,-0.2368788 0.43820287,-0.3472656 -0.1091669,0.069943 -0.17363277,0.142883 -0.17363277,0.214974 0,1.025234 11.34930283,1.8934111 25.34629483,1.8934111 12.408958,0 22.724797,-0.6918325 24.908139,-1.554427 -1.443461,0.9248245 -12.155752,1.6453908 -25.168489,1.6453908 z"
       id="path8"
       style="stroke-width:0.264583" />
    <path
       d="m 26.035273,1.2156883 c 13.996988,0 25.350258,0.8268495 25.350258,1.8520834 0,0.1163187 -0.158808,0.2368761 -0.438203,0.3472655 0.109167,-0.069945 0.173633,-0.1428908 0.173633,-0.2149739 0,-1.025234 -11.349302,-1.8934112 -25.346289,-1.8934112 -12.408962,0 -22.724803,0.6918324 -24.90814456,1.554427 C 2.3099881,1.9362545 13.022281,1.2156883 26.035022,1.2156883 Z"
       stroke="#ffffff"
       stroke-linecap="round"
       stroke-linejoin="round"
       stroke-width="0.0661458"
       id="path9" />
    <g
       fill="none"
       id="g13"
       transform="matrix(0.26458333,0,0,0.26458333,0.07170585,1.0853281)">
      <g
         stroke-linecap="round"
         stroke-linejoin="round"
         id="g11">
        <path
           d="m 193.36,8.1936 c 0,3.8749 -42.885,7.0161 -95.787,7.0161 -52.902,0 -95.787,-3.1412 -95.787,-7.0161 0,-3.8749 42.885,-7.0161 95.787,-7.0161 52.902,0 95.787,3.1412 95.787,7.0161 z"
           opacity="0.773"
           stroke="#999999"
           stroke-width="3"
           id="path10" />
        <path
           d="m 189.06,336.49 c 0,14.993 -40.962,27.146 -91.491,27.146 -50.529,0 -91.491,-12.154 -91.491,-27.146"
           stroke="#e6e6e6"
           stroke-width="2"
           id="path11" />
      </g>
      <path
         d="m 193.37,8.1864 -4.3174,308.53"
         stroke="#000000"
         stroke-width="0.486"
         id="path12" />
      <path
         d="m 193.36,8.1936 -4.3029,328.3"
         opacity="0.843"
         stroke="#999999"
         stroke-width="3"
         id="path13" />
    </g>
    <g
       stroke-width="2"
       id="g18"
       transform="matrix(0.26458333,0,0,0.26458333,0.07170585,1.0853281)">
      <path
         d="m 97.585,304.02 c -50.842,0 -92.062,4.9266 -92.062,11.031 h 0.3125 c 1.1882,11.791 41.814,21.281 91.75,21.281 49.936,0 90.53,-9.4905 91.719,-21.281 h 0.34375 c 0,-6.1046 -41.22,-11.031 -92.062,-11.031 z"
         fill="url(#h)"
         filter="url(#e)"
         id="path14"
         style="fill:url(#h-3);filter:url(#e-5)" />
      <g
         fill="#d40000"
         id="g16">
        <path
           d="m 190.06,78.269 c 0.7804,-0.7001 1.1454,-1.438 1.6242,-2.1655 v 2.3423 c -0.62241,-0.62603 -1.1149,-0.34288 -1.6242,-0.17676 z"
           opacity="0.102"
           id="path15" />
        <path
           d="M 4.4622,78.523 C 3.6818,77.8229 3.3168,77.085 2.838,76.3575 v 2.3423 c 0.62244,-0.62603 1.1149,-0.34288 1.6242,-0.17678 z"
           opacity="0.208"
           id="path16" />
      </g>
      <path
         d="M 78.952,362.25 C 40.883,358.9862 14.5,350.208 8.305,338.744 7.0183,336.3632 6.9599,335.8918 6.7191,325.932 6.46873,315.578 6.63698,314.47 8.1581,316.4577 c 3.27,4.2724 15.343,9.3153 30.059,12.555 16.92,3.7254 35.653,5.4106 60.144,5.4106 22.902,0 38.528,-1.2435 55.202,-4.3927 15.572,-2.9413 29.206,-8.041 34.195,-12.791 0.95206,-0.9064 1.8839,-1.648 2.0708,-1.648 0.18692,0 0.18652,4.6124 -9.9e-4,10.25 -0.38812,11.678 -0.61575,12.55 -4.3029,16.486 -7.8908,8.4228 -29.54,15.572 -57.42,18.963 -6.9718,0.84793 -42.388002,1.539 -49.152002,0.95904 h -3.1e-5 z"
         fill="#b2b2b2"
         opacity="0.59"
         id="path17" />
      <path
         d="m 186.3,321.86 v 17.25 c -29.453,25.818 -113.01,23.614 -154.25,14.5 89.316,12.916 140.22,-17.301 154.25,-31.75 z"
         fill="url(#g)"
         id="path18"
         style="fill:url(#g)" />
    </g>
  </g>
</svg>
